<svg width="1440" height="236" viewBox="0 0 1440 236" fill="none" xmlns="http://www.w3.org/2000/svg">
<g clip-path="url(#clip0)">
<path d="M414 236C414 205.533 531.387 201.13 580.786 172.983C630.184 144.835 709.559 113.045 800.835 91.5017C917.5 63.9662 1071.1 139.687 1190.36 128.028C1309.62 116.369 1310.92 4 1440 4L1440 236H414Z" fill="#9FD1FF"/>
<path d="M870 236C870 205.533 832.886 188.504 785.651 167.313C738.415 146.123 570.199 111.049 482.958 103.376C395.717 95.7039 302.207 107.728 196.654 96.0693C91.1005 84.4102 114.25 4 0 4L5.88372e-05 236H870Z" fill="#43A5FF" fill-opacity="0.79"/>
</g>
<defs>
<clipPath id="clip0">
<rect width="1440" height="236" fill="white"/>
</clipPath>
</defs>
</svg>
