<svg width="776" height="166" viewBox="0 0 776 166" fill="none" xmlns="http://www.w3.org/2000/svg">
<g filter="url(#filter0_d)">
<path d="M558.7 20.2538C549.087 14.4397 547.663 12.8292 548.966 9.23981C550.421 5.23473 556.53 6.61804 566.67 13.2517L576.223 19.4999V46.3845V73.2674H572.242H568.262L567.821 49.385L567.38 25.5025L558.7 20.2538Z" fill="#43A5FF"/>
<path d="M529.255 80.914C529.255 47.862 529.733 20.3144 530.317 19.6985C532.736 17.1406 538.582 18.99 547.963 25.2804L557.913 31.9528V63.1284C557.913 80.2746 558.541 94.3025 559.307 94.3025C560.072 94.3025 567.596 90.0568 576.025 84.8687C584.799 79.4669 592.389 75.8538 593.777 76.4176C595.837 77.2522 596.137 81.4911 595.766 104.522L595.328 131.642L574.723 144.312C559.101 153.918 553.518 156.585 551.637 155.336C548.448 153.218 547.229 128.903 550.126 125.214C553.385 121.062 572.188 110.748 574.666 111.753C579.892 113.873 577.087 119.353 567.864 125.036C560.104 129.818 558.633 131.496 558.211 136.05C557.936 139.005 558.198 141.421 558.792 141.421C559.388 141.421 565.876 137.825 573.212 133.428L586.551 125.434L586.56 108.127L586.571 90.819L582.989 92.8014C581.02 93.8935 573.963 98.0854 567.31 102.117C554.25 110.032 550.829 110.92 549.327 106.786C548.795 105.321 548.361 89.0605 548.361 70.6489V37.1728L543.584 34.5627L538.808 31.9528V87.5813C538.808 135.684 538.482 143.341 536.399 144.186C535.075 144.724 532.925 144.228 531.623 143.085C529.609 141.318 529.255 132.05 529.255 80.914Z" fill="#43A5FF"/>
<path d="M214.018 105.554C214.018 62.9752 212.89 66.7583 228.347 57.5062C238.486 51.4363 238.478 51.438 241.067 54.7346C244.087 58.5798 242.152 61.3699 232.466 67.1486L223.571 72.4545V106.732C223.571 135.016 223.157 141.372 221.204 143.085C219.901 144.228 217.752 144.724 216.427 144.186C214.377 143.355 214.018 137.615 214.018 105.554Z" fill="#43A5FF"/>
<path d="M233.455 81.5973C233.076 78.8122 236.875 75.8134 254.017 65.3665C266.354 57.846 276.087 52.9424 277.567 53.4977C278.956 54.0194 283.315 56.3467 287.255 58.6724C300.877 66.7078 299.995 63.544 299.968 104.239C299.954 124.226 299.417 141.399 298.774 142.401C298.131 143.404 293.047 147.025 287.48 150.449C271.232 160.442 271.334 160.617 271.334 122.797C271.334 105.274 271.036 90.9369 270.673 90.9369C270.31 90.9369 264.041 94.5717 256.743 99.016L243.472 107.093L243.019 124.258C242.769 133.697 243.147 141.421 243.859 141.421C244.569 141.421 246.744 140.241 248.69 138.801C251.772 136.521 252.229 134.666 252.229 124.445C252.229 115.521 252.807 112.473 254.638 111.731C259.713 109.671 261.782 114.356 261.782 127.903C261.782 142.678 261.675 142.85 247.035 151.494C233.249 159.634 233.119 159.426 233.148 129.273C233.162 115.131 233.698 102.711 234.342 101.677C234.985 100.642 244.647 94.3024 255.813 87.5897C272.624 77.481 276.524 75.7427 278.5 77.476C280.462 79.1975 280.887 85.0705 280.887 110.494C280.887 127.504 281.444 141.421 282.124 141.421C282.805 141.421 284.955 140.241 286.9 138.801C290.344 136.252 290.44 135.333 290.44 104.463V72.7457L283.225 68.2778L276.012 63.8083L257.806 74.9838C239.293 86.3461 234.286 87.7059 233.455 81.5973Z" fill="#43A5FF"/>
<path d="M311.137 65.8091L322.679 59.0426C335.779 51.3639 335.583 51.4211 338.035 54.5427C340.88 58.1675 338.75 61.3127 329.785 66.7178L321.485 71.7243L321.055 104.485L320.624 137.248L327.632 141.293L334.641 145.34L351.148 135.134L367.656 124.928L368.126 112.899C368.618 100.271 370.809 96.8166 375.637 101.052C379.285 104.251 378.959 128.238 375.219 131.696C371.963 134.705 336.026 156.566 334.334 156.566C333.702 156.566 328.225 153.504 322.16 149.761L311.137 142.956V104.382V65.8091Z" fill="#43A5FF"/>
<path d="M330.242 77.6965L351.337 64.9761C362.941 57.979 372.827 52.2508 373.308 52.244C373.789 52.2373 375.044 53.141 376.094 54.2516C378.186 56.4628 378.755 80.4613 376.787 83.4669C374.507 86.9469 355.669 97.9053 352.928 97.3466C351.262 97.0084 350.143 95.2616 350.143 93.0016C350.143 90.2132 352.442 87.7648 358.9 83.6755C366.233 79.0327 367.737 77.2573 368.155 72.7541C368.43 69.7974 368.072 67.4111 367.359 67.4515C366.647 67.4936 360.333 71.1521 353.327 75.5829L340.591 83.6402L340.135 100.911C339.885 110.41 340.243 117.902 340.931 117.557C341.619 117.214 344.883 115.479 348.185 113.704C353.754 110.708 354.375 110.675 356.805 113.243C358.994 115.558 359.08 116.446 357.325 118.68C353.918 123.02 335.149 133.421 332.595 132.384C330.654 131.597 330.242 126.713 330.242 104.563V77.6965Z" fill="#43A5FF"/>
<path d="M409.03 107.746C405.937 105.034 405.531 57.4675 408.573 54.2516C410.806 51.8923 410.49 51.9529 413.697 53.2537C417.384 54.7498 417.489 107.354 413.807 108.847C412.482 109.385 410.333 108.889 409.03 107.746Z" fill="#43A5FF"/>
<path d="M427.147 67.6838C427.879 66.4637 433.062 62.5159 438.666 58.908C449.984 51.6231 449.652 51.751 452.467 53.6391C454.024 54.6841 454.39 63.798 454.059 93.3869L453.631 131.78L432.998 144.459L412.367 157.135L402.748 151.579C386.341 142.099 387.557 145.881 387.557 104.344C387.557 74.0431 387.962 67.4347 389.925 65.7132C391.227 64.5705 393.362 64.0691 394.669 64.5992C396.655 65.4036 397.118 71.4431 397.476 101.205L397.906 136.846L405.071 141.012L412.235 145.177L428.539 135.306L444.84 125.434L444.857 96.3622L444.874 67.2917L440.097 69.9017L435.321 72.5117V96.0525V119.593L430.147 122.922C427.3 124.753 421.942 127.95 418.241 130.027C411.928 133.569 411.344 133.626 408.825 130.966C405.375 127.319 407.354 124.585 418.029 118.247L425.765 113.655L425.791 91.7782C425.805 79.7461 426.416 68.9038 427.147 67.6838Z" fill="#43A5FF"/>
<path d="M465.414 67.5895C466.176 66.3173 471.359 62.4048 476.932 58.8961C488.84 51.3975 488.518 51.4851 491.728 54.876C493.841 57.1108 494.229 62.95 494.229 92.554C494.229 123.526 493.906 127.972 491.443 130.917C488.609 134.305 452.552 156.566 449.9 156.566C447.472 156.566 444.764 152.09 445.701 149.628C446.186 148.354 454.788 142.389 464.818 136.373L483.053 125.434L483.068 96.3101L483.084 67.1873L478.308 70.1693L473.532 73.1512V96.4009C473.532 115.602 473.113 119.821 471.123 120.627C469.798 121.165 467.649 120.669 466.347 119.526C464.454 117.865 463.984 112.687 464.003 93.6764C464.017 80.5993 464.651 68.8617 465.414 67.5895Z" fill="#43A5FF"/>
<path d="M595.726 66.1491C586.498 60.4511 584.978 57.9555 588.482 54.2516C591.013 51.576 590.148 51.2966 603.49 59.0813L615.229 65.9303V104.443V142.956L604.205 149.761C592.005 157.292 590.95 157.591 588.331 154.256C585.436 150.569 587.646 147.486 596.99 142.175L605.718 137.214L605.299 104.507L604.88 71.8016L595.726 66.1491Z" fill="#43A5FF"/>
<path d="M626.373 104.485C626.373 63.1267 625.172 67.0898 640.542 57.7519C650.916 51.4497 650.854 51.4632 653.422 54.7346C656.445 58.5849 654.471 61.4573 644.771 67.3253L635.858 72.7137L636.291 104.933L636.722 137.152L643.505 141.105L650.287 145.058L666.961 135.245L683.635 125.434L683.662 114.281C683.691 102.622 686.006 97.9928 690.833 99.9516C692.736 100.722 693.242 104.098 693.242 115.997V131.065L672.147 144.028L651.051 156.989L640.855 151.308C635.25 148.184 629.696 144.627 628.516 143.405C626.849 141.675 626.373 133.021 626.373 104.485Z" fill="#43A5FF"/>
<path d="M647.894 77.4507C649.265 76.2475 658.776 70.1053 669.028 63.7998C679.281 57.4943 688.119 52.3114 688.67 52.2844C691.97 52.1145 693.338 58.1187 692.911 70.9148L692.446 84.877L682.097 91.2397C670.91 98.1174 666.598 99.1051 665.153 95.1219C663.879 91.6149 666.827 88.3218 675.934 83.0832C682.849 79.1067 683.69 78.0062 683.69 72.9409C683.69 66.4318 684.818 66.1255 665.778 77.7773L655.032 84.3537V101.108C655.032 110.323 655.471 117.862 656.009 117.862C656.546 117.862 659.712 116.243 663.043 114.264C669.773 110.266 674.137 110.969 674.137 116.053C674.137 118.417 670.855 121.421 662.932 126.313C646.122 136.689 646.356 136.968 645.837 105.88C645.468 83.731 645.789 79.2968 647.894 77.4507Z" fill="#43A5FF"/>
<path d="M704.387 66.3308L715.93 59.2883C728.91 51.369 728.528 51.4969 731.134 54.2516C734.626 57.942 733.129 60.3484 723.492 66.5361L713.94 72.6699V104.945V137.219L721.016 141.189L728.093 145.157L744.5 135.23L760.906 125.305L761.375 113.088C761.867 100.266 764.034 96.7947 768.887 101.052C772.536 104.253 772.208 128.248 768.468 131.669C765.372 134.501 733.786 154.064 729.566 155.762C727.894 156.435 722.647 154.227 715.635 149.899L704.387 142.956V104.643V66.3308Z" fill="#43A5FF"/>
<path d="M723.416 77.8984L744.549 65.0704C756.173 58.0144 766.077 52.239 766.558 52.2373C772.183 52.207 773.522 80.1955 768.145 85.4021C762.748 90.6306 747.868 98.2284 745.171 97.1346C739.58 94.8679 742.388 89.5064 752.13 83.8505C760.739 78.8526 761.665 77.7857 761.683 72.8466C761.694 69.8378 761.404 67.3775 761.041 67.3775C760.678 67.3775 754.409 71.0124 747.11 75.4567L733.841 83.5342L733.387 100.699C733.137 110.138 733.354 117.862 733.868 117.862C734.382 117.862 737.604 116.159 741.029 114.075C746.692 110.632 747.483 110.528 749.761 112.934C751.138 114.39 751.868 116.662 751.382 117.983C750.191 121.216 729.954 133.273 726.797 132.632C724.659 132.198 724.223 128.113 723.852 105.01L723.416 77.8984Z" fill="#43A5FF"/>
</g>
<g filter="url(#filter1_d)">
<rect x="6" y="7" width="178.416" height="150.135" rx="32" fill="#43A5FF"/>
<g filter="url(#filter2_di)">
<path fill-rule="evenodd" clip-rule="evenodd" d="M147.462 135.149C147.98 135.14 144.676 132.62 140.119 129.549C135.56 126.477 131.648 123.965 131.423 123.965C130.678 123.965 129.95 128.932 130.622 129.426C131.608 130.151 146.37 135.168 147.462 135.149Z" fill="white"/>
</g>
<g filter="url(#filter3_di)">
<path fill-rule="evenodd" clip-rule="evenodd" d="M120.955 102.269L116.047 100.696C110.551 98.9346 109.63 98.794 109.63 99.7149C109.63 100.067 111.238 105.248 113.204 111.226L116.779 122.098L109.011 130.921L101.243 139.745L105.882 141.188C108.435 141.982 111.341 142.604 112.342 142.572C113.343 142.54 117.412 138.759 121.385 134.172L128.608 125.831L124.781 114.05L120.955 102.269Z" fill="white"/>
</g>
<g filter="url(#filter4_di)">
<path fill-rule="evenodd" clip-rule="evenodd" d="M85.5226 113.387L83.5919 107.212C82.5304 103.816 81.2695 100.891 80.7911 100.712C80.3117 100.533 77.7617 102.341 75.125 104.73L70.3301 109.076L72.2769 113.721C76.3487 123.435 76.4524 123.487 81.2503 118.145L85.5226 113.387Z" fill="white"/>
</g>
<g filter="url(#filter5_di)">
<path fill-rule="evenodd" clip-rule="evenodd" d="M69.3451 85.7558L62.547 83.5132C58.8086 82.2787 55.2957 81.0915 54.7418 80.8737C54.1879 80.656 50.2218 83.5593 45.9295 87.3238L38.1243 94.1696V106.34V118.511L46.002 120.367L53.8807 122.222L61.6124 115.521L69.3451 108.819V97.287V85.7558Z" fill="white"/>
</g>
<g filter="url(#filter6_di)">
<path d="M106.609 44.717C106.609 43.5833 104.229 37.4306 101.321 31.0428C98.4137 24.6562 95.8073 19.4668 95.5303 19.5116C95.2534 19.5564 90.8945 23.0458 85.8438 27.2646L76.6599 34.9354L73.5277 51.5093L70.3945 68.0831L75.0545 82.6459C77.6166 90.6553 80.0035 97.6218 80.358 98.1258C80.7115 98.6298 83.1923 97.2944 85.2488 95.567L92.7547 89.2266C99.5044 83.8853 99.577 83.7161 103.149 64.952C105.052 54.9564 106.609 45.8507 106.609 44.717Z" fill="white"/>
<path d="M88.4805 94.5031C88.4805 95.4613 89.8401 100.319 91.5018 105.298C93.1636 110.277 94.5232 115.023 94.5232 115.843C94.5232 116.663 91.3729 120.647 87.5227 124.694C79.653 132.968 79.649 134.584 87.4975 135.879C91.9158 136.609 92.1595 136.459 99.7139 128.365L107.422 120.107L103.391 107.782L99.3594 95.4576L94.5 94.8655L88.4805 94.5031Z" fill="white"/>
</g>
<g filter="url(#filter7_di)">
<path fill-rule="evenodd" clip-rule="evenodd" d="M41.1456 51.7905C41.1456 50.6928 40.6017 49.1223 39.937 48.301C38.0316 45.9465 34.3969 46.4952 33.8188 49.2256C33.2618 51.8589 35.8391 55.5189 38.2511 55.5189C40.7558 55.5189 46.8439 64.5375 48.4835 70.674L50.0385 76.4969L45.5145 72.2296C42.6683 69.5453 39.8635 67.9636 37.948 67.9636C36.2731 67.9636 33.3313 67.0414 31.4097 65.9152C28.1658 64.0124 27.7972 64.0124 26.2583 65.9152C24.7184 67.8167 24.7244 68.1179 26.3429 70.1165C27.8143 71.9346 28.4075 72.0218 30.1518 70.6752C33.6898 67.9461 40.8747 70.1301 46.5296 75.6543C49.2549 78.315 51.6781 80.2527 51.9157 79.9602C52.1524 79.6666 51.388 75.5286 50.2167 70.7636C48.7081 64.6246 47.0765 60.8888 44.6161 57.9431C42.7076 55.657 41.1456 52.8881 41.1456 51.7905Z" fill="white"/>
</g>
</g>
<defs>
<filter id="filter0_d" x="210" y="7" width="565.549" height="158.135" filterUnits="userSpaceOnUse" color-interpolation-filters="sRGB">
<feFlood flood-opacity="0" result="BackgroundImageFix"/>
<feColorMatrix in="SourceAlpha" type="matrix" values="0 0 0 0 0 0 0 0 0 0 0 0 0 0 0 0 0 0 127 0" result="hardAlpha"/>
<feOffset dy="4"/>
<feGaussianBlur stdDeviation="2"/>
<feComposite in2="hardAlpha" operator="out"/>
<feColorMatrix type="matrix" values="0 0 0 0 0 0 0 0 0 0 0 0 0 0 0 0 0 0 0.25 0"/>
<feBlend mode="normal" in2="BackgroundImageFix" result="effect1_dropShadow"/>
<feBlend mode="normal" in="SourceGraphic" in2="effect1_dropShadow" result="shape"/>
</filter>
<filter id="filter1_d" x="2" y="7" width="186.416" height="158.135" filterUnits="userSpaceOnUse" color-interpolation-filters="sRGB">
<feFlood flood-opacity="0" result="BackgroundImageFix"/>
<feColorMatrix in="SourceAlpha" type="matrix" values="0 0 0 0 0 0 0 0 0 0 0 0 0 0 0 0 0 0 127 0" result="hardAlpha"/>
<feOffset dy="4"/>
<feGaussianBlur stdDeviation="2"/>
<feComposite in2="hardAlpha" operator="out"/>
<feColorMatrix type="matrix" values="0 0 0 0 0 0 0 0 0 0 0 0 0 0 0 0 0 0 0.25 0"/>
<feBlend mode="normal" in2="BackgroundImageFix" result="effect1_dropShadow"/>
<feBlend mode="normal" in="SourceGraphic" in2="effect1_dropShadow" result="shape"/>
</filter>
<filter id="filter2_di" x="126.356" y="123.965" width="25.1587" height="19.1842" filterUnits="userSpaceOnUse" color-interpolation-filters="sRGB">
<feFlood flood-opacity="0" result="BackgroundImageFix"/>
<feColorMatrix in="SourceAlpha" type="matrix" values="0 0 0 0 0 0 0 0 0 0 0 0 0 0 0 0 0 0 127 0" result="hardAlpha"/>
<feOffset dy="4"/>
<feGaussianBlur stdDeviation="2"/>
<feComposite in2="hardAlpha" operator="out"/>
<feColorMatrix type="matrix" values="0 0 0 0 0 0 0 0 0 0 0 0 0 0 0 0 0 0 0.25 0"/>
<feBlend mode="normal" in2="BackgroundImageFix" result="effect1_dropShadow"/>
<feBlend mode="normal" in="SourceGraphic" in2="effect1_dropShadow" result="shape"/>
<feColorMatrix in="SourceAlpha" type="matrix" values="0 0 0 0 0 0 0 0 0 0 0 0 0 0 0 0 0 0 127 0" result="hardAlpha"/>
<feOffset dy="4"/>
<feGaussianBlur stdDeviation="2"/>
<feComposite in2="hardAlpha" operator="arithmetic" k2="-1" k3="1"/>
<feColorMatrix type="matrix" values="0 0 0 0 0 0 0 0 0 0 0 0 0 0 0 0 0 0 0.25 0"/>
<feBlend mode="normal" in2="shape" result="effect2_innerShadow"/>
</filter>
<filter id="filter3_di" x="97.2427" y="99.155" width="35.3655" height="51.4182" filterUnits="userSpaceOnUse" color-interpolation-filters="sRGB">
<feFlood flood-opacity="0" result="BackgroundImageFix"/>
<feColorMatrix in="SourceAlpha" type="matrix" values="0 0 0 0 0 0 0 0 0 0 0 0 0 0 0 0 0 0 127 0" result="hardAlpha"/>
<feOffset dy="4"/>
<feGaussianBlur stdDeviation="2"/>
<feComposite in2="hardAlpha" operator="out"/>
<feColorMatrix type="matrix" values="0 0 0 0 0 0 0 0 0 0 0 0 0 0 0 0 0 0 0.25 0"/>
<feBlend mode="normal" in2="BackgroundImageFix" result="effect1_dropShadow"/>
<feBlend mode="normal" in="SourceGraphic" in2="effect1_dropShadow" result="shape"/>
<feColorMatrix in="SourceAlpha" type="matrix" values="0 0 0 0 0 0 0 0 0 0 0 0 0 0 0 0 0 0 127 0" result="hardAlpha"/>
<feOffset dy="4"/>
<feGaussianBlur stdDeviation="2"/>
<feComposite in2="hardAlpha" operator="arithmetic" k2="-1" k3="1"/>
<feColorMatrix type="matrix" values="0 0 0 0 0 0 0 0 0 0 0 0 0 0 0 0 0 0 0.25 0"/>
<feBlend mode="normal" in2="shape" result="effect2_innerShadow"/>
</filter>
<filter id="filter4_di" x="66.3301" y="100.7" width="23.1925" height="29.0056" filterUnits="userSpaceOnUse" color-interpolation-filters="sRGB">
<feFlood flood-opacity="0" result="BackgroundImageFix"/>
<feColorMatrix in="SourceAlpha" type="matrix" values="0 0 0 0 0 0 0 0 0 0 0 0 0 0 0 0 0 0 127 0" result="hardAlpha"/>
<feOffset dy="4"/>
<feGaussianBlur stdDeviation="2"/>
<feComposite in2="hardAlpha" operator="out"/>
<feColorMatrix type="matrix" values="0 0 0 0 0 0 0 0 0 0 0 0 0 0 0 0 0 0 0.25 0"/>
<feBlend mode="normal" in2="BackgroundImageFix" result="effect1_dropShadow"/>
<feBlend mode="normal" in="SourceGraphic" in2="effect1_dropShadow" result="shape"/>
<feColorMatrix in="SourceAlpha" type="matrix" values="0 0 0 0 0 0 0 0 0 0 0 0 0 0 0 0 0 0 127 0" result="hardAlpha"/>
<feOffset dy="4"/>
<feGaussianBlur stdDeviation="2"/>
<feComposite in2="hardAlpha" operator="arithmetic" k2="-1" k3="1"/>
<feColorMatrix type="matrix" values="0 0 0 0 0 0 0 0 0 0 0 0 0 0 0 0 0 0 0.25 0"/>
<feBlend mode="normal" in2="shape" result="effect2_innerShadow"/>
</filter>
<filter id="filter5_di" x="34.1243" y="80.8622" width="39.2208" height="49.3601" filterUnits="userSpaceOnUse" color-interpolation-filters="sRGB">
<feFlood flood-opacity="0" result="BackgroundImageFix"/>
<feColorMatrix in="SourceAlpha" type="matrix" values="0 0 0 0 0 0 0 0 0 0 0 0 0 0 0 0 0 0 127 0" result="hardAlpha"/>
<feOffset dy="4"/>
<feGaussianBlur stdDeviation="2"/>
<feComposite in2="hardAlpha" operator="out"/>
<feColorMatrix type="matrix" values="0 0 0 0 0 0 0 0 0 0 0 0 0 0 0 0 0 0 0.25 0"/>
<feBlend mode="normal" in2="BackgroundImageFix" result="effect1_dropShadow"/>
<feBlend mode="normal" in="SourceGraphic" in2="effect1_dropShadow" result="shape"/>
<feColorMatrix in="SourceAlpha" type="matrix" values="0 0 0 0 0 0 0 0 0 0 0 0 0 0 0 0 0 0 127 0" result="hardAlpha"/>
<feOffset dy="4"/>
<feGaussianBlur stdDeviation="2"/>
<feComposite in2="hardAlpha" operator="arithmetic" k2="-1" k3="1"/>
<feColorMatrix type="matrix" values="0 0 0 0 0 0 0 0 0 0 0 0 0 0 0 0 0 0 0.25 0"/>
<feBlend mode="normal" in2="shape" result="effect2_innerShadow"/>
</filter>
<filter id="filter6_di" x="66.3945" y="19.5113" width="45.0279" height="124.646" filterUnits="userSpaceOnUse" color-interpolation-filters="sRGB">
<feFlood flood-opacity="0" result="BackgroundImageFix"/>
<feColorMatrix in="SourceAlpha" type="matrix" values="0 0 0 0 0 0 0 0 0 0 0 0 0 0 0 0 0 0 127 0" result="hardAlpha"/>
<feOffset dy="4"/>
<feGaussianBlur stdDeviation="2"/>
<feComposite in2="hardAlpha" operator="out"/>
<feColorMatrix type="matrix" values="0 0 0 0 0 0 0 0 0 0 0 0 0 0 0 0 0 0 0.25 0"/>
<feBlend mode="normal" in2="BackgroundImageFix" result="effect1_dropShadow"/>
<feBlend mode="normal" in="SourceGraphic" in2="effect1_dropShadow" result="shape"/>
<feColorMatrix in="SourceAlpha" type="matrix" values="0 0 0 0 0 0 0 0 0 0 0 0 0 0 0 0 0 0 127 0" result="hardAlpha"/>
<feOffset dy="4"/>
<feGaussianBlur stdDeviation="2"/>
<feComposite in2="hardAlpha" operator="arithmetic" k2="-1" k3="1"/>
<feColorMatrix type="matrix" values="0 0 0 0 0 0 0 0 0 0 0 0 0 0 0 0 0 0 0.25 0"/>
<feBlend mode="normal" in2="shape" result="effect2_innerShadow"/>
</filter>
<filter id="filter7_di" x="21.116" y="46.8167" width="34.8428" height="41.1727" filterUnits="userSpaceOnUse" color-interpolation-filters="sRGB">
<feFlood flood-opacity="0" result="BackgroundImageFix"/>
<feColorMatrix in="SourceAlpha" type="matrix" values="0 0 0 0 0 0 0 0 0 0 0 0 0 0 0 0 0 0 127 0" result="hardAlpha"/>
<feOffset dy="4"/>
<feGaussianBlur stdDeviation="2"/>
<feComposite in2="hardAlpha" operator="out"/>
<feColorMatrix type="matrix" values="0 0 0 0 0 0 0 0 0 0 0 0 0 0 0 0 0 0 0.25 0"/>
<feBlend mode="normal" in2="BackgroundImageFix" result="effect1_dropShadow"/>
<feBlend mode="normal" in="SourceGraphic" in2="effect1_dropShadow" result="shape"/>
<feColorMatrix in="SourceAlpha" type="matrix" values="0 0 0 0 0 0 0 0 0 0 0 0 0 0 0 0 0 0 127 0" result="hardAlpha"/>
<feOffset dy="4"/>
<feGaussianBlur stdDeviation="2"/>
<feComposite in2="hardAlpha" operator="arithmetic" k2="-1" k3="1"/>
<feColorMatrix type="matrix" values="0 0 0 0 0 0 0 0 0 0 0 0 0 0 0 0 0 0 0.25 0"/>
<feBlend mode="normal" in2="shape" result="effect2_innerShadow"/>
</filter>
</defs>
</svg>
