<svg width="1440" height="141" viewBox="0 0 1440 141" fill="none" xmlns="http://www.w3.org/2000/svg">
<path fill-rule="evenodd" clip-rule="evenodd" d="M0 0L59.625 5.29769C120.375 10.5954 239.625 21.1908 360 39.1214C480.375 57.4595 599.625 83.5405 720 88.8382C840.375 94.1358 959.625 78.2428 1080 73.3526C1200.38 68.0549 1319.62 73.3526 1380.38 75.7977L1440 78.2428V141H1380.38C1319.62 141 1200.38 141 1080 141C959.625 141 840.375 141 720 141C599.625 141 480.375 141 360 141C239.625 141 120.375 141 59.625 141H0V0Z" fill="#43A5FF" fill-opacity="0.8"/>
<path fill-rule="evenodd" clip-rule="evenodd" d="M0 56.4L48 67.68C96 78.96 192 101.52 288 95.88C384 90.24 480 56.4 576 33.84C672 11.28 768 0 864 0C960 0 1056 11.28 1152 31.02C1248 50.76 1344 78.96 1392 93.06L1440 107.16V141H1392C1344 141 1248 141 1152 141C1056 141 960 141 864 141C768 141 672 141 576 141C480 141 384 141 288 141C192 141 96 141 48 141H0V56.4Z" fill="#9FD1FF" fill-opacity="0.8"/>
</svg>
